<svg xmlns="http://www.w3.org/2000/svg" viewBox="0 0 388.57 45.24"><title>TRONA-nav-logo</title><g id="Layer_2" data-name="Layer 2"><g id="Layer_2-2" data-name="Layer 2"><path d="M129.52,39.88c-2.51-.66-2.72-2.73-2.93-4.79-.09-.84-.12-1.68-.28-2.51-.31-1.61-1.45-2-3-1.83a.64.64,0,0,0-.4.47c0,1.82,0,3.64,0,5.46a1.38,1.38,0,0,0,1.26,1.47c.3.07.6.12.94.18v1.1h-8.84V38.38s.08-.07.12-.08c1.84-.2,2.11-.49,2.11-2.33q0-5.33,0-10.66c0-1.94-.23-2.2-2.21-2.41V21.78c.16,0,.31,0,.46,0,3.35,0,6.71-.05,10.06,0a12.32,12.32,0,0,1,3.49.67,3.23,3.23,0,0,1,2.27,3.26,3.3,3.3,0,0,1-2,3.43A25.19,25.19,0,0,1,127,30c-.25.06-.5.07-.76.11l0,.19a4.92,4.92,0,0,0,.49.11c1.46.18,2.86.61,3.56,2a13.69,13.69,0,0,1,.79,2.91,10.62,10.62,0,0,0,.24,1.16c.08.21.33.48.52.49a.74.74,0,0,0,.59-.4c.22-.71.35-1.45.51-2.18a3.16,3.16,0,0,0,0-.36h1.19a5.12,5.12,0,0,1-3.48,5.84Zm-6.65-13.26h0q0,.76,0,1.53c0,1.43.11,1.54,1.54,1.45a6.62,6.62,0,0,0,1.05-.14,2.43,2.43,0,0,0,2-1.88,9.15,9.15,0,0,0,.13-2.68,1.93,1.93,0,0,0-1.6-1.75,6.69,6.69,0,0,0-2-.09c-.87.08-1.14.43-1.16,1.31S122.87,25.87,122.87,26.62Z"/><path d="M89.37,38.32v1.11H80V38.34c.39-.06.78-.11,1.16-.2a1.53,1.53,0,0,0,1.33-1.66c0-4.28,0-8.57,0-12.85,0-.52-.21-.63-.68-.62a3.37,3.37,0,0,0-3.25,2.12,16.48,16.48,0,0,0-.84,2.58c-.22.87-.18.88-1,.82V21.7h16v6.82h-.84a15,15,0,0,0-.62-2.35,9.79,9.79,0,0,0-1.42-2.36A3.07,3.07,0,0,0,87.43,23c-.39,0-.56.17-.55.56,0,.89,0,1.78,0,2.66q0,4.86,0,9.72c0,1.67.38,2.1,2.05,2.31Z"/><path d="M152.62,39.44c-.17-.66,0-1,.7-1.11a.9.9,0,0,0,.82-1q0-3.63,0-7.26a1.39,1.39,0,0,0-1.52-1.54V27.7l4.75-.41.3,2.33.52-.65a4.6,4.6,0,0,1,5.33-1.4,3.18,3.18,0,0,1,2,2.92c.11,1.88.08,3.77.11,5.66,0,.31,0,.62,0,.93,0,1.06.09,1.11,1.14,1.35.43.1.43.1.36,1h-6.49c-.13-.58-.13-1,.68-1.05a.77.77,0,0,0,.78-.83c0-2.26,0-4.53-.08-6.79a1.56,1.56,0,0,0-1.15-1.55,2,2,0,0,0-2.17.62,4.2,4.2,0,0,0-1,2.75c-.06,1.6,0,3.2,0,4.8,0,.61.34.86.87,1,.75.19.75.19.65,1.07Z"/><path d="M144.05,28.5v-.82l5-.42c0,.29,0,.55,0,.81,0,2.91,0,5.82,0,8.72,0,1.24,0,1.21,1.21,1.67.22.09.28.57.48,1h-4.71V37l-.14-.06-.41.54a5,5,0,0,1-4.41,2.29,3.32,3.32,0,0,1-3.44-3.45c0-1.6,0-3.2,0-4.79,0-.38,0-.76,0-1.13,0-1.32-.23-1.54-1.54-1.88v-.85l5-.41c0,.75,0,1.48,0,2.2,0,2.18,0,4.35,0,6.53,0,1.24.63,2,1.61,2a2.27,2.27,0,0,0,1.94-1,5.43,5.43,0,0,0,.91-3.08c0-1.15,0-2.31,0-3.46C145.53,29,145.44,28.93,144.05,28.5Z"/><path d="M176.68,38a5.7,5.7,0,0,1-3.07,1.68,8,8,0,0,1-2.31,0A2.54,2.54,0,0,1,169,37.63a3,3,0,0,1,1-3.06,9.21,9.21,0,0,1,4.12-1.74c.75-.18,1.51-.3,2.43-.47a18.59,18.59,0,0,0-.39-2.54,2.7,2.7,0,0,0-3.67-1.44c-.44.23-.29.5-.14.83a3.32,3.32,0,0,1,.42,1.22c0,.77-.49,1.17-1.29,1.22-1,.07-1.69-.31-1.87-1.09a2.32,2.32,0,0,1,1.51-2.65,8.2,8.2,0,0,1,4.1-.62,8.09,8.09,0,0,1,1,.13c2.42.49,3.57,2,3.66,4.73,0,1.42,0,2.84.05,4.26,0,.35,0,.71.07,1.06a.67.67,0,0,0,.69.65c.17,0,.43.15.48.29A.71.71,0,0,1,181,39c-.95,1.07-3.43,1.35-4.18-.66C176.8,38.21,176.75,38.12,176.68,38Zm-.12-4.83c-1.06.34-1.93.57-2.77.89a2.08,2.08,0,0,0-1.31,1.72,2.24,2.24,0,0,0,.7,2.3,1.73,1.73,0,0,0,1.95,0,2.11,2.11,0,0,0,1.17-1.62C176.43,35.46,176.46,34.42,176.56,33.14Z"/><path d="M104.88,33.52H97.26c0,1.64.28,3.13,1.58,4.19a2.87,2.87,0,0,0,3.78-.2,3.54,3.54,0,0,0,.83-1c.32-.68.8-.8,1.54-.62A5.39,5.39,0,0,1,102,39.23c-3.86,1.64-8.36-.32-8.5-5.32A6.84,6.84,0,0,1,94.8,29.4c2.09-2.76,6.81-2.91,8.85-.26A6.66,6.66,0,0,1,104.88,33.52Zm-7.77-1c1.46,0,2.67,0,3.88,0,.14,0,.41-.31.4-.45a20.67,20.67,0,0,0-.49-2.77,1.46,1.46,0,0,0-1.51-1.09,1.55,1.55,0,0,0-1.57,1.12C97.52,30.31,97.35,31.35,97.1,32.51Z"/><path d="M147,23.9v1.3h-7.83V23.9Z"/><path d="M201.91,40.64c-1.31-.43-2.63-.82-2.58-2.56.06-2,1.74-2.39,3.21-3l-.48-.2a3.34,3.34,0,0,1-2.41-3,3.4,3.4,0,0,1,1.69-3.39,7.36,7.36,0,0,1,7.25-.27c.16.07.3.17.45.25a7.47,7.47,0,0,1,1.11-1.26,3.52,3.52,0,0,1,1.48-.59,1.1,1.1,0,0,1,1.25.87,1.31,1.31,0,0,1-.46,1.55,1.23,1.23,0,0,1-1.58-.2c-.1-.08-.19-.23-.3-.25s-.47-.06-.57,0-.24.49-.15.61c1.79,2.75.13,5.84-3.65,6.15-.75.06-1.51,0-2.26,0a3,3,0,0,0-1,.19.86.86,0,0,0-.58,1.07,1.44,1.44,0,0,0,.74.81,5.37,5.37,0,0,0,1.51.18c1.52.09,3.06.09,4.57.28a2.66,2.66,0,0,1,2.58,2.22A3.79,3.79,0,0,1,210.32,44a6.3,6.3,0,0,1-3.81,1.2,40.79,40.79,0,0,1-4.64-.25,3.68,3.68,0,0,1-1.48-.55,1.68,1.68,0,0,1-.15-2.85A13.16,13.16,0,0,1,201.91,40.64Zm3.48.28c-.93.12-1.89.18-2.81.36a1.34,1.34,0,0,0-1.26,1.32c0,.73.33,1.27,1.29,1.41a19.21,19.21,0,0,0,3.81.18,5.82,5.82,0,0,0,2.14-.77,1.12,1.12,0,0,0,.56-1.25,1.11,1.11,0,0,0-1-.92C207.22,41.11,206.31,41,205.39,40.92Zm1.78-9.41c-.15-.69-.24-1.37-.45-2a1.55,1.55,0,0,0-1.52-1.17,1.68,1.68,0,0,0-1.73,1.09,5.54,5.54,0,0,0-.08,4A1.68,1.68,0,0,0,205,34.57a1.65,1.65,0,0,0,1.71-1.12A16,16,0,0,0,207.17,31.51Z"/><path d="M183,28.68v-.82l4.75-.41.31,2.3c.21-.25.34-.39.46-.54a4.56,4.56,0,0,1,5-1.6,3.18,3.18,0,0,1,2.32,3.07c.12,1.81.08,3.64.11,5.46,0,.33,0,.67,0,1,0,1.17,0,1.17,1.18,1.45.64.16.25.63.36,1H191v-.88c1.52-.49,1.53-.49,1.52-2.18s0-3.51-.09-5.26c0-1.19-.53-1.79-1.42-2a2,2,0,0,0-2.3,1.19,7,7,0,0,0-.65,2.34c-.1,1.53,0,3.06,0,4.59,0,.66.29,1,.9,1.09.79.06.72.52.63,1.08H183v-.87s.07-.08.11-.09c1.4-.36,1.45-.42,1.45-1.91q0-2.7,0-5.4c0-.29,0-.58,0-.87C184.45,29.21,184.27,29,183,28.68Z"/><path d="M222.12,38.12a6,6,0,0,1-4.9,1.81,2.87,2.87,0,0,1-2.67-1.85,3,3,0,0,1,.94-3.37A9.39,9.39,0,0,1,219.61,33c.73-.17,1.47-.29,2.27-.45a5.74,5.74,0,0,0-.38-2.91,2.88,2.88,0,0,0-3.59-1.08c-.39.23-.25.49-.12.79a3.53,3.53,0,0,1,.43,1.22c0,.77-.48,1.19-1.26,1.25-1,.07-1.7-.3-1.89-1.07a2.23,2.23,0,0,1,1.26-2.54,9.18,9.18,0,0,1,5.32-.63c2.42.48,3.59,2,3.68,4.71,0,1.44,0,2.88.05,4.33,0,.33,0,.66.07,1a.67.67,0,0,0,.68.68c.18,0,.47.15.49.27a.82.82,0,0,1-.19.62,2.52,2.52,0,0,1-4.14-.67ZM222,33.31c-1.07.34-1.95.57-2.78.9a2.15,2.15,0,0,0-1.3,1.66c-.39,1.73.76,3,2.29,2.56a2.11,2.11,0,0,0,1.51-1.71C221.89,35.67,221.9,34.6,222,33.31Z"/><path d="M277,23.11c-2.05.24-2.18.39-2.18,2.41q0,6.73,0,13.46c0,.2,0,.4,0,.69-.86-.06-1.63.24-2.39-.63-3.54-4.1-7.16-8.13-10.75-12.19a2.74,2.74,0,0,1-.31-.58l-.28.19c0,.23,0,.46,0,.69q0,4.3,0,8.6c0,2.21.05,2.27,2.17,2.8v1.09h-5.67V38.56a.39.39,0,0,1,.11-.06c1.91-.37,2.1-.6,2.1-2.54,0-3.24-.07-6.49,0-9.73,0-1.74-.53-2.88-2.25-3.34V22c1.89,0,3.75,0,5.61,0,.21,0,.43.27.61.46l9.07,10,.61.64c0-.34.06-.52.06-.7q0-3.67,0-7.33c0-1.48-.29-1.79-1.75-1.91l-.41,0a2.16,2.16,0,0,1-.07-.33c0-.24,0-.48,0-.78H277Z"/><path d="M354.25,38.49v1.16h-9.5V38.54c.54-.06,1.09-.1,1.63-.19.75-.12,1.05-.54.87-1.27-.3-1.22-.66-2.42-1-3.65-2,0-3.89,0-5.8,0a.62.62,0,0,0-.45.35c-.3.88-.6,1.76-.83,2.66-.28,1.12,0,1.6,1.15,1.89.28.07.56.12.87.19v1.1h-6V38.51c1.31-.07,1.89-1,2.3-2.06q2.61-6.93,5.21-13.86c.18-.47.37-.71.93-.67a20.73,20.73,0,0,0,2.6,0,.82.82,0,0,1,1,.69c1.43,4.37,2.9,8.74,4.37,13.1.14.42.31.83.49,1.23A2.21,2.21,0,0,0,354.25,38.49Zm-13.68-6.31h5.22l-2.19-7.45-.28,0Z"/><path d="M281.4,40.67c-1.32-.43-2.63-.83-2.58-2.58.07-2,1.71-2.36,3.19-3l-.48-.21a3.34,3.34,0,0,1-2.39-3,3.42,3.42,0,0,1,1.77-3.41,7.51,7.51,0,0,1,7.64,0c.33-.39.67-.83,1.05-1.22a1.9,1.9,0,0,1,1.61-.63,1.21,1.21,0,0,1,1.18.91,1.31,1.31,0,0,1-.48,1.54,1.22,1.22,0,0,1-1.53-.19c-.1-.08-.19-.23-.3-.25s-.49-.1-.57,0-.26.52-.17.66c1.71,2.74.18,5.74-3.56,6.12-.77.08-1.55,0-2.32,0a3.22,3.22,0,0,0-1,.14,1,1,0,0,0-.71,1.08.89.89,0,0,0,.84.88c.83.1,1.68.08,2.52.13,1.17.08,2.35.11,3.51.28a2.69,2.69,0,0,1,2.55,2.18A3.8,3.8,0,0,1,289.89,44,6.17,6.17,0,0,1,286,45.24a40.53,40.53,0,0,1-4.7-.25,3.63,3.63,0,0,1-1.47-.56,1.68,1.68,0,0,1-.12-2.85A13.57,13.57,0,0,1,281.4,40.67Zm3.33.26c-.89.15-2,.26-3,.54a1.15,1.15,0,0,0-.81,1.62,2,2,0,0,0,1.24.94,19.3,19.3,0,0,0,3.81.19,5.6,5.6,0,0,0,2.08-.73,1.15,1.15,0,0,0,.6-1.3,1.11,1.11,0,0,0-1-.9C286.71,41.15,285.83,41.07,284.73,40.94Zm-2.21-9.59c.06.56.08.93.14,1.3a3.46,3.46,0,0,0,.18.71,1.82,1.82,0,0,0,3.46,0,5.72,5.72,0,0,0,0-3.65,1.68,1.68,0,0,0-1.61-1.35,1.75,1.75,0,0,0-1.8,1.28A14.06,14.06,0,0,0,282.51,31.35Z"/><path d="M301.6,38.16A5.94,5.94,0,0,1,296.76,40,2.87,2.87,0,0,1,294,38.1a3,3,0,0,1,1-3.41A9.56,9.56,0,0,1,299,33c.75-.18,1.51-.3,2.32-.45a5.85,5.85,0,0,0-.36-2.87,2.86,2.86,0,0,0-3.63-1.12c-.39.24-.23.49-.1.79a3.52,3.52,0,0,1,.43,1.22c0,.77-.48,1.19-1.27,1.24-1,.07-1.7-.31-1.88-1.08A2.29,2.29,0,0,1,296,28.13a9.32,9.32,0,0,1,5.14-.53c2.42.48,3.58,2,3.67,4.72,0,1.42,0,2.84.05,4.26,0,.35,0,.71.07,1.06a.67.67,0,0,0,.69.66c.18,0,.44.14.48.28a.7.7,0,0,1-.15.57c-.94,1.07-3.42,1.37-4.18-.64C301.73,38.42,301.68,38.33,301.6,38.16Zm-.12-4.81c-1.06.34-1.93.57-2.77.89A2.07,2.07,0,0,0,297.4,36a2.21,2.21,0,0,0,.76,2.34,1.6,1.6,0,0,0,2-.07,3.08,3.08,0,0,0,1-1.54A24.44,24.44,0,0,0,301.48,33.35Z"/><path d="M313.07,23.07v4.75h2.73v1h-2.73c0,.73,0,1.39,0,2.05q0,2.86,0,5.73a1.43,1.43,0,0,0,0,.59c.17.34.35.8.63.91a1.52,1.52,0,0,0,1.08-.28,3.75,3.75,0,0,0,.73-.84l.63.35a3.68,3.68,0,0,1-4.85,2.41,2.31,2.31,0,0,1-1.42-1.73,11.56,11.56,0,0,1-.28-2.24c0-2,0-4.09,0-6.13,0-.24,0-.48,0-.78h-1.94V27.83c2.46-.4,3.55-2.21,4.32-4.35C312.18,22.92,312.2,22.92,313.07,23.07Z"/><path d="M317.91,28.7V27.9l5-.41c0,.29,0,.55,0,.81q0,4.49,0,9c0,.89.16,1.16,1,1.27s.77.48.63,1.09h-6.65c-.08-.56-.17-1,.66-1.08a.92.92,0,0,0,.87-1c0-2.42,0-4.84,0-7.25C319.38,29.18,319.18,29.06,317.91,28.7Z"/><path d="M297.51,25.39c0-.21,0-.4,0-.6s0-.43,0-.7h7.83v1.29Z"/><path d="M321,24.78A1.73,1.73,0,0,1,319.22,23a1.76,1.76,0,1,1,3.51,0A1.69,1.69,0,0,1,321,24.78Z"/><path d="M362.36,28h6.58v.91c-.05,0-.09.08-.13.08-1.31.24-1.53.61-1.11,1.86l1.8,5.27c.06.18.14.36.26.63a2.29,2.29,0,0,0,.29-.4q1-2.66,2-5.33a3.19,3.19,0,0,0,.2-.9.85.85,0,0,0-.71-1c-.68-.11-.81-.48-.63-1.11h4.19c.14.51.14.86-.52,1.14a2.43,2.43,0,0,0-1,1.25c-1.18,2.69-2.31,5.41-3.46,8.12l-.55,1.26c-2.07.17-2.06.16-2.78-1.73s-1.44-3.8-2.21-5.84l-1.78,4.24c-.41,1-.82,2-1.21,2.95a.58.58,0,0,1-.63.43c-1.69,0-1.69,0-2.31-1.55q-1.53-3.86-3.05-7.71a2.48,2.48,0,0,0-1.5-1.58c-.22-.08-.29-.56-.49-1h6.73c.13.56.16,1-.64,1.08s-.87.53-.57,1.38c.56,1.54,1.16,3.06,1.75,4.59l.66,1.71a5.66,5.66,0,0,0,.32-.54q1-2.36,2-4.72a1.81,1.81,0,0,0-.91-2.32C362.31,28.94,362.26,28.57,362.36,28Z"/><path d="M384,38.28a5.93,5.93,0,0,1-4.86,1.8,2.89,2.89,0,0,1-2.69-1.82,3,3,0,0,1,1-3.42,9.46,9.46,0,0,1,4.07-1.69c.75-.17,1.51-.3,2.39-.47a18,18,0,0,0-.28-2.37,2.67,2.67,0,0,0-3.7-1.65c-.46.21-.36.49-.19.86a3.12,3.12,0,0,1,.41,1.28c0,.76-.52,1.12-1.35,1.16-1,0-1.62-.34-1.8-1.11a2.25,2.25,0,0,1,1.35-2.55,9.21,9.21,0,0,1,5.26-.58c2.42.49,3.57,2,3.65,4.74,0,1.55,0,3.11.06,4.66,0,.61-.07,1.36,1,1.3.33,0,.42.53.15.83-1,1.1-3.4,1.36-4.18-.52C384.18,38.6,384.11,38.47,384,38.28Zm-.11-4.81a27.28,27.28,0,0,0-2.67.84,2.52,2.52,0,0,0-1.2,3.47,1.51,1.51,0,0,0,1.57.88,2.15,2.15,0,0,0,2-1.82A33.18,33.18,0,0,0,383.91,33.47Z"/><path d="M242.47,40.09c-.54-.09-1.08-.14-1.61-.26a5.69,5.69,0,0,1-4.41-4.92,7.16,7.16,0,0,1,.5-4,5.51,5.51,0,0,1,3.63-3.15,7.92,7.92,0,0,1,4.8.08,5.51,5.51,0,0,1,3.83,4.78,6.64,6.64,0,0,1-.92,4.64A5.89,5.89,0,0,1,243.6,40l-.53.06Zm2.86-6.4c0-.57,0-1.14,0-1.7a6,6,0,0,0-.57-2.52,2.08,2.08,0,0,0-3.65-.13,4.89,4.89,0,0,0-.56,1.49,17.65,17.65,0,0,0-.17,4.92,5.5,5.5,0,0,0,.58,2.28,2.09,2.09,0,0,0,3.66.11,3.9,3.9,0,0,0,.4-.91A11.38,11.38,0,0,0,245.33,33.69Z"/><path d="M52.64,21.18c2.87-3.47,2.58-12.31,10.25-17.3-9.8-4.62-18.38,12.33-27.43,17,5.08,6.21,16.13,1.59,17.18.32"/><path d="M37.26,31.85a14.4,14.4,0,0,1,1.49-.1,1.61,1.61,0,0,1,.32,1.9c-.15.2-1.06.38-1.37.57A1.65,1.65,0,0,0,37.26,31.85Zm-11.67,4a11.28,11.28,0,0,1-1,.56A1.71,1.71,0,0,0,24.83,39c.46,0,.69-.1,1.35-.16A2.26,2.26,0,0,1,25.59,35.82Zm15.33-2.91s3.68-1.32,5.7-2.21c-1.47.16-4.75.72-5.88.8C41,31.56,41.31,32.15,40.92,32.92ZM74.36,18a3.35,3.35,0,0,0-3.51-2.29,2.63,2.63,0,0,0-2,1.11,1.27,1.27,0,0,0-.12,1.29.68.68,0,0,0,1,.19c.33-.3.28-.8-.09-.88a.53.53,0,0,1,.6.12,1,1,0,0,1,0,1.31,1.29,1.29,0,0,1-1.76.11,1.63,1.63,0,0,1-.71-1.09c-1.35,1.46-3.67,3.35-6.73,6C53.21,30.45,29.36,50.26,0,38.26c.82-.75,13.19-.44,23.55-8.12A10.38,10.38,0,0,1,22.79,29c-1.92-3.37-7.07-6.35-9.5-11.33C11,13,10.88,7.16,12.37,0c0,8.5,8.82,9.88,15.55,14.38s9.57,10.33,18.34,8.57a72.16,72.16,0,0,0,10.05-4.2c3.37-1.74,7.3-4,8.35-4.58-.7,1.08.59,2,.94,1.7a1.22,1.22,0,0,1-.07-1.81,2.15,2.15,0,0,1,2.25-.43,2,2,0,0,1,1.28,1.8A4,4,0,0,1,72.25,15,3.39,3.39,0,0,1,74.36,18Zm-43.6,2.08s3.19,1.55,5.58,2.43c-2.42-1.59-3.54-2.88-4.92-3.83A1.13,1.13,0,0,1,30.77,20.08ZM28.11,19c.35.05,1.19.5,1.41.44a1.55,1.55,0,0,0,.69-1.76c-.29-.18-.81-.66-1.27-.89A1.58,1.58,0,0,1,28.11,19ZM25,17.83c.32.17.85.32,1.29.49,1.07.19,1.84-1.37,1.23-2.49-.31-.24-.93-.61-1.18-.86A1.87,1.87,0,0,1,25,17.83Zm-3.4-3.56c-1.28,2.78,1.6,4.78,3.88,5.69,1.07.43,2.12.67,3.47,1.13,2.4.82,4.68,1.71,6.11,2.23a61.44,61.44,0,0,0-5.87-2.88c-1.34-.53-2.53-.75-3.49-1.2-2.31-1.07-4.31-3-3.26-4.66a1,1,0,0,1,1.22-.37c.26.15.63.49.32,1.23a.68.68,0,0,0-.57-.87.85.85,0,0,0-.77.44A1.19,1.19,0,0,0,23,16.4a1.13,1.13,0,0,0,1.8-.63,1.81,1.81,0,0,0-.61-2.3A1.74,1.74,0,0,0,21.6,14.27Zm-2.75,1c.18.21,1,.9,1.49,1.35-.81-1.44-.55-3.78,1.21-4.36-.56-.25-1.11-.46-1.36-.56A2.46,2.46,0,0,0,18.85,15.25Zm-2.33-2.67c.35.35.55.5,1.06,1A2.15,2.15,0,0,1,19,10.91,11.18,11.18,0,0,1,18,10.48,1.55,1.55,0,0,0,16.53,12.58Zm-4-7.25a12.42,12.42,0,0,0,3.24,5.86,1.21,1.21,0,0,1,.84-1.52S13,6.63,12.57,5.33ZM67.5,14.85a1,1,0,0,0-1.21-.31.49.49,0,0,0-.33.38c.1-.2.76-.14.92.22a1.19,1.19,0,0,1-.62,1.58,2,2,0,0,1-2.6-.82c-1.77,1.36-11.9,9.08-22.88,8.48a18.33,18.33,0,0,0,6.28.79C38.39,28.8,20.31,25.88,12.8,14,13.94,21.19,24.54,27.07,25,30.47c-8.74,7.59-20,8-22.6,8C24,44.6,38.56,38.4,56.83,25.66A110.84,110.84,0,0,0,66.53,18C67.36,17.31,68.29,16.21,67.5,14.85Zm-37,19.45a1.27,1.27,0,0,1,.73-1.19c.28-.08.75-.08.93.71-.16-.49-.61-.46-.92-.25a1.07,1.07,0,0,0-.34.91,1,1,0,0,0,1,.81,1.37,1.37,0,0,0,1-1.81c-.24-.92-.81-1.47-1.76-1.31a2.13,2.13,0,0,0-1.52,2.5c.58,3.07,3.91,2.49,6.17,1.51,3.28-1.42,7.19-3.51,9.23-4.48-1.87.61-6.24,2.57-9.46,3.77C33.25,36.35,30.64,36.37,30.51,34.31Zm3.95,1c.34-.07.85-.3,1.3-.44A1.72,1.72,0,0,0,35.52,32c-.38,0-1.07.11-1.4.07A2,2,0,0,1,34.45,35.34Zm-11.68,2.3a35.37,35.37,0,0,1-4.68,1.94,19.27,19.27,0,0,0,5.1-.2C22.56,39.21,22.49,38.09,22.77,37.63Zm5.56-3.55c-.53.32-1,.66-1.26.81-.67,1.85.33,3.55,1.47,3.5.26,0,1.23-.25,1.87-.4A2.87,2.87,0,0,1,28.33,34.09Z"/></g></g></svg>